{"asset":{"version":"2.0","generator":"generate-man.mjs"},"scene":0,"scenes":[{"nodes":[0]}],"nodes":[{"mesh":0}],"meshes":[{"name":"Man","primitives":[{"attributes":{"POSITION":0,"NORMAL":1},"indices":2,"material":0},{"attributes":{"POSITION":3,"NORMAL":4},"indices":5,"material":0},{"attributes":{"POSITION":6,"NORMAL":7},"indices":8,"material":0},{"attributes":{"POSITION":9,"NORMAL":10},"indices":11,"material":0},{"attributes":{"POSITION":12,"NORMAL":13},"indices":14,"material":0},{"attributes":{"POSITION":15,"NORMAL":16},"indices":17,"material":0}]}],"materials":[{"name":"ManMaterial","pbrMetallicRoughness":{"baseColorFactor":[0,1,0,1],"metallicFactor":0,"roughnessFactor":0.8}}],"accessors":[{"bufferView":0,"byteOffset":0,"componentType":5126,"count":24,"type":"VEC3","min":[-0.30000001192092896,1,-0.15000000596046448],"max":[0.30000001192092896,1.899999976158142,0.15000000596046448]},{"bufferView":1,"byteOffset":0,"componentType":5126,"count":24,"type":"VEC3"},{"bufferView":2,"byteOffset":0,"componentType":5123,"count":36,"type":"SCALAR"},{"bufferView":3,"byteOffset":0,"componentType":5126,"count":221,"type":"VEC3","min":[-0.25,1.899999976158142,-0.25],"max":[0.25,2.4000000953674316,0.25]},{"bufferView":4,"byteOffset":0,"componentType":5126,"count":221,"type":"VEC3"},{"bufferView":5,"byteOffset":0,"componentType":5123,"count":1056,"type":"SCALAR"},{"bufferView":6,"byteOffset":0,"componentType":5126,"count":24,"type":"VEC3","min":[-0.550000011920929,1.100000023841858,-0.10000000149011612],"max":[-0.3499999940395355,1.7999999523162842,0.10000000149011612]},{"bufferView":7,"byteOffset":0,"componentType":5126,"count":24,"type":"VEC3"},{"bufferView":8,"byteOffset":0,"componentType":5123,"count":36,"type":"SCALAR"},{"bufferView":9,"byteOffset":0,"componentType":5126,"count":24,"type":"VEC3","min":[0.3499999940395355,1.100000023841858,-0.10000000149011612],"max":[0.550000011920929,1.7999999523162842,0.10000000149011612]},{"bufferView":10,"byteOffset":0,"componentType":5126,"count":24,"type":"VEC3"},{"bufferView":11,"byteOffset":0,"componentType":5123,"count":36,"type":"SCALAR"},{"bufferView":12,"byteOffset":0,"componentType":5126,"count":24,"type":"VEC3","min":[-0.30000001192092896,-5.9604645663569045e-9,-0.10999999940395355],"max":[-0.07999999821186066,0.800000011920929,0.10999999940395355]},{"bufferView":13,"byteOffset":0,"componentType":5126,"count":24,"type":"VEC3"},{"bufferView":14,"byteOffset":0,"componentType":5123,"count":36,"type":"SCALAR"},{"bufferView":15,"byteOffset":0,"componentType":5126,"count":24,"type":"VEC3","min":[0.07999999821186066,-5.9604645663569045e-9,-0.10999999940395355],"max":[0.30000001192092896,0.800000011920929,0.10999999940395355]},{"bufferView":16,"byteOffset":0,"componentType":5126,"count":24,"type":"VEC3"},{"bufferView":17,"byteOffset":0,"componentType":5123,"count":36,"type":"SCALAR"}],"bufferViews":[{"buffer":0,"byteOffset":0,"byteLength":288,"target":34962},{"buffer":0,"byteOffset":288,"byteLength":288,"target":34962},{"buffer":0,"byteOffset":576,"byteLength":72,"target":34963},{"buffer":0,"byteOffset":648,"byteLength":2652,"target":34962},{"buffer":0,"byteOffset":3300,"byteLength":2652,"target":34962},{"buffer":0,"byteOffset":5952,"byteLength":2112,"target":34963},{"buffer":0,"byteOffset":8064,"byteLength":288,"target":34962},{"buffer":0,"byteOffset":8352,"byteLength":288,"target":34962},{"buffer":0,"byteOffset":8640,"byteLength":72,"target":34963},{"buffer":0,"byteOffset":8712,"byteLength":288,"target":34962},{"buffer":0,"byteOffset":9000,"byteLength":288,"target":34962},{"buffer":0,"byteOffset":9288,"byteLength":72,"target":34963},{"buffer":0,"byteOffset":9360,"byteLength":288,"target":34962},{"buffer":0,"byteOffset":9648,"byteLength":288,"target":34962},{"buffer":0,"byteOffset":9936,"byteLength":72,"target":34963},{"buffer":0,"byteOffset":10008,"byteLength":288,"target":34962},{"buffer":0,"byteOffset":10296,"byteLength":288,"target":34962},{"buffer":0,"byteOffset":10584,"byteLength":72,"target":34963}],"buffers":[{"uri":"data:application/octet-stream;base64,","byteLength":10656}]}